<?xml version="1.0" encoding="UTF-8" standalone="no"?>
<svg xmlns="http://www.w3.org/2000/svg" version="1.2" baseProfile="tiny" viewBox="0.00 0.00 72.00 72.00">
<g stroke-width="2.00" fill="none" stroke-linecap="butt">
<path stroke="#df8b99" vector-effect="non-scaling-stroke" d="
  M 39.14 12.01
  L 36.75 17.60
  A 0.86 0.86 0.0 0 1 35.16 17.59
  L 32.87 12.03"
/>
<path stroke="#df8b99" vector-effect="non-scaling-stroke" d="
  M 40.85 67.18
  Q 40.81 60.59 38.27 53.83"
/>
<path stroke="#ebbc7d" vector-effect="non-scaling-stroke" d="
  M 38.27 53.83
  Q 45.67 51.44 50.01 46.05"
/>
<path stroke="#f0ca90" vector-effect="non-scaling-stroke" d="
  M 50.01 46.05
  Q 50.25 43.22 47.23 40.97
  C 43.54 38.23 38.41 34.99 33.74 36.29
  Q 27.41 38.04 22.67 42.95
  Q 21.92 43.72 21.94 45.92"
/>
<path stroke="#ebbc7d" vector-effect="non-scaling-stroke" d="
  M 21.94 45.92
  Q 26.46 51.61 33.81 53.83"
/>
<path stroke="#df8b99" vector-effect="non-scaling-stroke" d="
  M 33.81 53.83
  Q 31.13 60.46 31.22 67.03"
/>
<path stroke="#858c90" vector-effect="non-scaling-stroke" d="
  M 26.12 37.00
  A 3.11 3.11 0.0 0 0 23.01 33.89
  A 3.11 3.11 0.0 0 0 19.90 37.00
  A 3.11 3.11 0.0 0 0 23.01 40.11
  A 3.11 3.11 0.0 0 0 26.12 37.00"
/>
<path stroke="#858c90" vector-effect="non-scaling-stroke" d="
  M 52.13 37.00
  A 3.11 3.11 0.0 0 0 49.02 33.89
  A 3.11 3.11 0.0 0 0 45.91 37.00
  A 3.11 3.11 0.0 0 0 49.02 40.11
  A 3.11 3.11 0.0 0 0 52.13 37.00"
/>
<path stroke="#fa9e20" vector-effect="non-scaling-stroke" d="
  M 50.01 46.05
  Q 47.43 46.49 45.17 46.85
  C 40.14 47.65 34.59 47.27 29.50 47.21
  Q 27.81 47.20 21.94 45.92"
/>
<path stroke="#e95f28" vector-effect="non-scaling-stroke" d="
  M 38.27 53.83
  Q 36.17 54.20 33.81 53.83"
/>
</g>
<path fill="#e1e8ed" d="
  M 32.87 12.03
  L 35.16 17.59
  A 0.86 0.86 0.0 0 0 36.75 17.60
  L 39.14 12.01
  Q 50.27 14.67 53.89 23.84
  Q 55.46 27.80 55.66 36.28
  Q 56.00 50.15 57.50 63.48
  C 58.11 68.94 51.29 70.92 49.20 66.26
  Q 48.97 65.76 48.68 66.23
  Q 45.72 70.99 40.85 67.18
  Q 40.81 60.59 38.27 53.83
  Q 45.67 51.44 50.01 46.05
  Q 50.25 43.22 47.23 40.97
  C 43.54 38.23 38.41 34.99 33.74 36.29
  Q 27.41 38.04 22.67 42.95
  Q 21.92 43.72 21.94 45.92
  Q 26.46 51.61 33.81 53.83
  Q 31.13 60.46 31.22 67.03
  Q 26.49 71.12 23.39 66.28
  Q 23.01 65.69 22.76 66.34
  C 21.06 70.78 13.86 68.96 14.44 63.67
  Q 16.26 47.12 16.50 33.00
  C 16.68 22.24 21.77 14.57 32.87 12.03
  Z
  M 26.12 37.00
  A 3.11 3.11 0.0 0 0 23.01 33.89
  A 3.11 3.11 0.0 0 0 19.90 37.00
  A 3.11 3.11 0.0 0 0 23.01 40.11
  A 3.11 3.11 0.0 0 0 26.12 37.00
  Z
  M 52.13 37.00
  A 3.11 3.11 0.0 0 0 49.02 33.89
  A 3.11 3.11 0.0 0 0 45.91 37.00
  A 3.11 3.11 0.0 0 0 49.02 40.11
  A 3.11 3.11 0.0 0 0 52.13 37.00
  Z"
/>
<g fill="#dd2e44">
<path d="
  M 35.06 0.00
  L 37.03 0.00
  Q 39.69 1.69 39.99 4.25
  Q 40.41 7.79 39.14 12.01
  L 36.75 17.60
  A 0.86 0.86 0.0 0 1 35.16 17.59
  L 32.87 12.03
  Q 31.49 7.69 32.12 3.86
  Q 32.52 1.43 35.06 0.00
  Z"
/>
<path d="
  M 38.27 53.83
  Q 40.81 60.59 40.85 67.18
  Q 40.40 70.80 37.41 72.00
  L 34.50 72.00
  Q 31.40 70.57 31.22 67.03
  Q 31.13 60.46 33.81 53.83
  Q 36.17 54.20 38.27 53.83
  Z"
/>
</g>
<path fill="#ffac33" d="
  M 50.01 46.05
  Q 47.43 46.49 45.17 46.85
  C 40.14 47.65 34.59 47.27 29.50 47.21
  Q 27.81 47.20 21.94 45.92
  Q 21.92 43.72 22.67 42.95
  Q 27.41 38.04 33.74 36.29
  C 38.41 34.99 43.54 38.23 47.23 40.97
  Q 50.25 43.22 50.01 46.05
  Z"
/>
<g fill="#292f33">
<path d="
  M 26.12 37.00
  A 3.11 3.11 0.0 0 1 23.01 40.11
  A 3.11 3.11 0.0 0 1 19.90 37.00
  A 3.11 3.11 0.0 0 1 23.01 33.89
  A 3.11 3.11 0.0 0 1 26.12 37.00
  Z"
/>
<path d="
  M 52.13 37.00
  A 3.11 3.11 0.0 0 1 49.02 40.11
  A 3.11 3.11 0.0 0 1 45.91 37.00
  A 3.11 3.11 0.0 0 1 49.02 33.89
  A 3.11 3.11 0.0 0 1 52.13 37.00
  Z"
/>
</g>
<path fill="#f4900c" d="
  M 21.94 45.92
  Q 27.81 47.20 29.50 47.21
  C 34.59 47.27 40.14 47.65 45.17 46.85
  Q 47.43 46.49 50.01 46.05
  Q 45.67 51.44 38.27 53.83
  Q 36.17 54.20 33.81 53.83
  Q 26.46 51.61 21.94 45.92
  Z"
/>
</svg>
